<svg width="497" height="421" viewBox="0 0 497 421" fill="none" xmlns="http://www.w3.org/2000/svg">
<g id="finance_svg 1">
<path id="Vector" d="M395.843 299.115C395.843 299.115 457.328 301.994 443.007 319.525C428.686 337.056 391.054 309.241 391.054 309.241L395.843 299.115Z" fill="#FFB8B8"/>
<path id="Vector_2" d="M282.535 132.136L295.05 134.97C295.05 134.97 302.351 154.807 307.565 172.754C312.78 190.702 323.209 244.544 323.209 244.544L404.064 295.867L394.421 315.407L286.707 276.957L262.72 191.646L282.535 132.136Z" fill="#575A89"/>
<path id="Vector_3" opacity="0.2" d="M294.311 167.347L289.646 255.818L299.379 282.122L270.867 263.184L294.311 167.347Z" fill="black"/>
<path id="Vector_4" d="M311.216 324.363C311.216 324.363 324.774 357.424 326.86 380.095C328.945 402.766 331.031 420.713 331.031 420.713H267.413L254.898 403.71V420.713H180.85C180.85 420.713 159.992 359.314 168.335 351.757C176.679 344.2 255.941 312.083 255.941 312.083L311.216 324.363Z" fill="#2F2E41"/>
<path id="Vector_5" d="M432.437 419.852H64.3111V421H432.437V419.852Z" fill="#3F3D56"/>
<path id="Vector_6" d="M231.432 96.241C253.32 96.241 271.063 80.1702 271.063 60.346C271.063 40.5217 253.32 24.451 231.432 24.451C209.545 24.451 191.801 40.5217 191.801 60.346C191.801 80.1702 209.545 96.241 231.432 96.241Z" fill="#FFB8B8"/>
<path id="Vector_7" d="M201.187 75.4597L198.059 117.022L237.69 165.197L257.505 119.856C257.505 119.856 239.776 109.465 250.205 87.7395L201.187 75.4597Z" fill="#FFB8B8"/>
<path id="Vector_8" d="M316.949 332.391C316.949 340.896 290.876 354.118 290.876 354.118V358.841L280.447 363.564L257.504 322.004L251.251 367.341C251.251 367.341 205.358 373.957 190.76 367.341C176.155 360.73 168.856 363.565 147.998 356.953C127.14 350.342 156.343 261.546 156.343 261.546L135.484 124.579L181.053 103.943L183.455 102.852L189.721 101.808L199.326 100.201L231.431 119.856L234.016 132.137L235.607 139.695L243.945 131.19L250.243 112.43L295.052 134.972L282.538 225.65C282.538 225.65 316.949 323.892 316.949 332.391Z" fill="#575A89"/>
<path id="Vector_9" d="M163.642 361.675C163.642 361.675 211.617 396.626 188.672 403.238C165.728 409.85 153.213 367.343 153.213 367.343L163.642 361.675Z" fill="#FFB8B8"/>
<path id="Vector_10" d="M145.913 126.468L135.483 124.579C135.483 124.579 119.84 132.136 118.797 147.25C117.754 162.363 104.196 268.159 104.196 268.159L147.998 374.9L183.458 362.62L149.041 262.492L175.114 175.588L145.913 126.468Z" fill="#575A89"/>
<path id="Vector_11" d="M236.019 155.295C238.118 155.295 239.82 153.753 239.82 151.852C239.82 149.95 238.118 148.408 236.019 148.408C233.919 148.408 232.217 149.95 232.217 151.852C232.217 153.753 233.919 155.295 236.019 155.295Z" fill="#2F2E41"/>
<path id="Vector_12" d="M236.019 177.676C238.118 177.676 239.82 176.135 239.82 174.233C239.82 172.331 238.118 170.79 236.019 170.79C233.919 170.79 232.217 172.331 232.217 174.233C232.217 176.135 233.919 177.676 236.019 177.676Z" fill="#2F2E41"/>
<path id="Vector_13" d="M257.561 325.163C259.661 325.163 261.363 323.621 261.363 321.719C261.363 319.818 259.661 318.276 257.561 318.276C255.462 318.276 253.76 319.818 253.76 321.719C253.76 323.621 255.462 325.163 257.561 325.163Z" fill="#2F2E41"/>
<path id="Vector_14" d="M197.972 23.5732L190.646 20.9167C190.646 20.9167 205.964 5.64223 227.276 6.97048L221.282 0.993477C221.282 0.993477 235.934 -4.31933 249.254 9.62688C256.256 16.9581 264.358 25.5756 269.408 35.283H277.254L273.979 41.8134L285.44 48.3437L273.677 47.1707C274.378 50.7468 274.485 54.3977 273.996 58.0025C273.491 61.6085 271.46 64.8959 268.33 67.1708V67.1708C268.33 67.1708 259.244 50.1374 259.244 47.4809V54.122C259.244 54.122 251.918 48.1451 251.918 44.1604L247.922 48.8092H221.282L225.278 42.8323L209.96 44.8246L215.954 37.5193L192.238 67.6851C192.238 67.6851 178.658 33.5347 197.972 23.5732Z" fill="#2F2E41"/>
<g id="money">
<path id="Vector_15" d="M418.361 272.775C453.354 272.775 481.721 247.082 481.721 215.388C481.721 183.693 453.354 158 418.361 158C383.368 158 355 183.693 355 215.388C355 247.082 383.368 272.775 418.361 272.775Z" fill="#3F3D56"/>
<path id="Vector_16" opacity="0.1" d="M418.361 264.741C448.455 264.741 472.851 242.645 472.851 215.388C472.851 188.131 448.455 166.034 418.361 166.034C388.267 166.034 363.87 188.131 363.87 215.388C363.87 242.645 388.267 264.741 418.361 264.741Z" fill="black"/>
<path id="Vector_17" d="M415.75 244.511V237.327C411.741 237.257 407.593 235.976 405.174 234.198L406.833 229.433C409.708 231.384 413.194 232.455 416.786 232.491C421.694 232.491 425.012 229.575 425.012 225.521C425.012 221.609 422.316 219.192 417.201 217.058C410.151 214.213 405.796 210.941 405.796 204.754C405.796 198.851 409.874 194.37 416.234 193.303V186.12H420.519V193.019C423.715 193.058 426.832 193.922 429.505 195.508L427.777 200.202C425.213 198.612 422.175 197.769 419.068 197.784C413.745 197.784 411.741 201.055 411.741 203.9C411.741 207.599 414.298 209.448 420.312 212.008C427.431 214.995 431.026 218.694 431.026 225.023C431.026 230.642 427.224 235.905 420.104 237.114V244.511H415.75Z" fill="#4794F1"/>
</g>
<path id="Vector_18" opacity="0.2" d="M158.405 289.733L183.746 361.429L163.471 286.826L158.405 289.733Z" fill="black"/>
<g id="left-graph">
<path id="Vector_19" d="M29.205 149.669H13.1198C12.4188 149.668 11.7466 149.416 11.2509 148.967C10.7552 148.518 10.4763 147.909 10.4756 147.274V126.331C10.4763 125.696 10.7552 125.088 11.2509 124.639C11.7466 124.19 12.4188 123.937 13.1198 123.936H29.205C29.9061 123.937 30.5782 124.19 31.0739 124.639C31.5697 125.088 31.8485 125.696 31.8493 126.331V147.274C31.8485 147.909 31.5697 148.518 31.0739 148.967C30.5782 149.416 29.9061 149.668 29.205 149.669V149.669ZM13.1198 125.084C12.7547 125.085 12.4047 125.216 12.1466 125.45C11.8884 125.684 11.7432 126.001 11.7428 126.331V147.274C11.7432 147.605 11.8884 147.922 12.1466 148.156C12.4047 148.389 12.7547 148.521 13.1198 148.521H29.205C29.5701 148.521 29.9201 148.389 30.1783 148.156C30.4364 147.922 30.5816 147.605 30.5821 147.274V126.331C30.5816 126.001 30.4364 125.684 30.1783 125.45C29.9201 125.216 29.5701 125.085 29.205 125.084H13.1198Z" fill="#3F3D56"/>
<path id="Vector_20" d="M58.5851 149.669H44.0592C43.1515 149.668 42.2812 149.341 41.6393 148.76C40.9975 148.178 40.6364 147.39 40.6353 146.568V104.274C40.6364 103.451 40.9975 102.663 41.6393 102.082C42.2812 101.5 43.1515 101.173 44.0592 101.173H58.5851C59.4929 101.173 60.3632 101.5 61.005 102.082C61.6469 102.663 62.008 103.451 62.009 104.274V146.568C62.008 147.39 61.6469 148.178 61.005 148.76C60.3632 149.341 59.4929 149.668 58.5851 149.669V149.669ZM44.0592 102.32C43.4874 102.321 42.9392 102.527 42.5349 102.893C42.1306 103.259 41.9032 103.756 41.9025 104.274V146.568C41.9032 147.086 42.1306 147.582 42.5349 147.949C42.9392 148.315 43.4874 148.521 44.0592 148.521H58.5851C59.1569 148.521 59.7051 148.315 60.1095 147.949C60.5138 147.582 60.7412 147.086 60.7418 146.568V104.274C60.7412 103.756 60.5138 103.259 60.1095 102.893C59.7051 102.527 59.1569 102.321 58.5851 102.32L44.0592 102.32Z" fill="#3F3D56"/>
<path id="Vector_21" d="M88.184 149.669H74.7799C73.7234 149.668 72.7106 149.287 71.9635 148.611C71.2165 147.934 70.7963 147.017 70.7951 146.06V83.8391C70.7963 82.8822 71.2165 81.9648 71.9635 81.2882C72.7106 80.6116 73.7234 80.231 74.7799 80.2299H88.184C89.2405 80.231 90.2533 80.6116 91.0004 81.2882C91.7474 81.9648 92.1676 82.8822 92.1688 83.8391V146.06C92.1676 147.017 91.7474 147.934 91.0004 148.611C90.2533 149.287 89.2405 149.668 88.184 149.669V149.669ZM74.7799 81.3777C74.0594 81.3784 73.3686 81.638 72.8592 82.0994C72.3497 82.5608 72.0631 83.1865 72.0623 83.8391V146.06C72.0631 146.712 72.3497 147.338 72.8592 147.8C73.3686 148.261 74.0594 148.521 74.7799 148.521H88.184C88.9045 148.521 89.5953 148.261 90.1047 147.8C90.6142 147.338 90.9008 146.712 90.9016 146.06V83.8391C90.9008 83.1865 90.6142 82.5608 90.1047 82.0994C89.5953 81.638 88.9045 81.3784 88.184 81.3777H74.7799Z" fill="#3F3D56"/>
<path id="Vector_22" d="M27.1944 127.925H15.1305V145.681H27.1944V127.925Z" fill="#4794F1"/>
<path id="Vector_23" d="M57.3541 105.389H45.2902V145.681H57.3541V105.389Z" fill="#4794F1"/>
<path id="Vector_24" d="M87.5138 84.446H75.45V145.681H87.5138V84.446Z" fill="#4794F1"/>
<path id="Vector_25" d="M100.744 157.703H0.633607C0.550395 157.703 0.467995 157.689 0.391113 157.66C0.31423 157.631 0.244371 157.589 0.18553 157.535C0.12669 157.482 0.0800198 157.419 0.0481857 157.349C0.0163517 157.279 -2.16223e-05 157.205 2.14299e-08 157.129V67.0307C2.14299e-08 66.8785 0.0667544 66.7326 0.185579 66.6249C0.304403 66.5173 0.465564 66.4569 0.633607 66.4569C0.80165 66.4569 0.962811 66.5173 1.08164 66.6249C1.20046 66.7326 1.26721 66.8785 1.26721 67.0307V156.556H100.744C100.912 156.556 101.073 156.616 101.192 156.724C101.31 156.831 101.377 156.977 101.377 157.129C101.377 157.282 101.31 157.428 101.192 157.535C101.073 157.643 100.912 157.703 100.744 157.703Z" fill="#3F3D56"/>
</g>
<g id="right-graph">
<path id="Vector_26" d="M458.098 83.6731H373.828C373.745 83.6732 373.663 83.6583 373.586 83.6295C373.509 83.6007 373.439 83.5584 373.38 83.5051C373.321 83.4518 373.275 83.3885 373.243 83.3189C373.211 83.2493 373.195 83.1746 373.195 83.0993V5.62588C373.195 5.47368 373.261 5.32771 373.38 5.22009C373.499 5.11246 373.66 5.052 373.828 5.052C373.996 5.052 374.157 5.11246 374.276 5.22009C374.395 5.32771 374.462 5.47368 374.462 5.62588V82.5254H458.098C458.266 82.5254 458.427 82.5859 458.546 82.6935C458.665 82.8011 458.732 82.9471 458.732 83.0993C458.732 83.2515 458.665 83.3974 458.546 83.5051C458.427 83.6127 458.266 83.6731 458.098 83.6731Z" fill="#3F3D56"/>
<path id="Vector_27" d="M402.91 76.4809H386.825C386.124 76.4803 385.451 76.2278 384.956 75.7788C384.46 75.3298 384.181 74.721 384.18 74.086V53.1434C384.181 52.5083 384.46 51.8995 384.956 51.4505C385.451 51.0015 386.124 50.749 386.825 50.7484H402.91C403.611 50.7491 404.283 51.0017 404.779 51.4507C405.274 51.8997 405.553 52.5084 405.554 53.1434V74.086C405.553 74.7209 405.274 75.3296 404.779 75.7786C404.283 76.2276 403.611 76.4802 402.91 76.4809ZM386.825 51.8961C386.46 51.8965 386.109 52.0281 385.851 52.2619C385.593 52.4957 385.448 52.8127 385.447 53.1434V74.086C385.448 74.4167 385.593 74.7337 385.851 74.9675C386.109 75.2013 386.46 75.3328 386.825 75.3332H402.91C403.275 75.3328 403.625 75.2013 403.883 74.9674C404.141 74.7336 404.286 74.4166 404.287 74.086V53.1434C404.286 52.8127 404.141 52.4957 403.883 52.2619C403.625 52.0281 403.275 51.8965 402.91 51.8961H386.825Z" fill="#3F3D56"/>
<path id="Vector_28" d="M435.851 76.4809H421.046C420.175 76.48 419.34 76.1663 418.724 75.6085C418.108 75.0508 417.762 74.2946 417.761 73.5059V35.5729C417.762 34.7842 418.109 34.028 418.724 33.4703C419.34 32.9127 420.175 32.599 421.046 32.5981H435.851C436.721 32.599 437.556 32.9127 438.172 33.4703C438.788 34.028 439.134 34.7842 439.135 35.5729V73.5059C439.134 74.2946 438.788 75.0508 438.172 75.6085C437.556 76.1663 436.721 76.48 435.851 76.4809V76.4809ZM421.046 33.7459C420.511 33.7464 419.998 33.939 419.62 34.2815C419.242 34.6241 419.029 35.0885 419.028 35.5729V73.5059C419.029 73.9903 419.242 74.4548 419.62 74.7974C419.998 75.14 420.511 75.3326 421.046 75.3332H435.851C436.385 75.3326 436.898 75.14 437.276 74.7974C437.655 74.4548 437.867 73.9903 437.868 73.5059V35.5729C437.867 35.0885 437.654 34.6241 437.276 34.2816C436.898 33.939 436.385 33.7464 435.851 33.7459H421.046Z" fill="#3F3D56"/>
<path id="Vector_29" d="M400.61 54.9355H388.546V72.6913H400.61V54.9355Z" fill="#4794F1"/>
<path id="Vector_30" d="M434.48 37.3623H422.416V71.7167H434.48V37.3623Z" fill="#4794F1"/>
<path id="Vector_31" d="M394.737 44.6495C397.887 44.6495 400.44 42.3371 400.44 39.4846C400.44 36.6321 397.887 34.3197 394.737 34.3197C391.588 34.3197 389.035 36.6321 389.035 39.4846C389.035 42.3371 391.588 44.6495 394.737 44.6495Z" fill="#4794F1"/>
<path id="Vector_32" d="M428.318 25.1377C431.468 25.1377 434.021 22.8253 434.021 19.9728C434.021 17.1203 431.468 14.8079 428.318 14.8079C425.169 14.8079 422.616 17.1203 422.616 19.9728C422.616 22.8253 425.169 25.1377 428.318 25.1377Z" fill="#4794F1"/>
</g>
</g>
</svg>
